<svg width="164" height="101" viewBox="0 0 164 101" fill="none" xmlns="http://www.w3.org/2000/svg">
<path fill-rule="evenodd" clip-rule="evenodd" d="M63.364 45.2528C63.9398 44.7567 64.3691 44.0917 64.5729 43.3586C64.8003 42.5477 64.7818 41.6821 64.6054 40.8637C64.4296 40.0681 63.9977 39.3337 63.3876 38.7949C62.7481 38.2191 61.9633 37.8331 61.1614 37.5356C60.229 37.1974 59.2965 36.856 58.3627 36.5172C57.9188 36.3471 57.4684 36.1611 57.1028 35.8497C56.8232 35.6153 56.6245 35.286 56.5627 34.9255C56.4926 34.5191 56.5156 34.0796 56.7175 33.7114C56.871 33.4204 57.12 33.1904 57.4054 33.0293C57.8417 32.7802 58.3436 32.6726 58.8404 32.6305C59.8793 32.5548 60.9347 32.7223 61.8952 33.1242C62.6239 33.4197 63.2901 33.8471 63.9149 34.3204C63.9162 33.3942 63.9162 32.4681 63.9149 31.5414C62.9156 30.8911 61.7595 30.5019 60.5812 30.3407C59.5251 30.2019 58.4379 30.2095 57.4016 30.4745C56.5805 30.6828 55.7882 31.0554 55.1608 31.6325C54.4704 32.2573 54.0309 33.1446 53.9391 34.0707C53.8481 35.0573 53.9958 36.1006 54.5347 36.949C54.9334 37.5802 55.5245 38.0681 56.171 38.4312C57.0219 38.9184 57.9659 39.2 58.8812 39.5388C59.634 39.8191 60.4137 40.0503 61.1105 40.4611C61.5092 40.6955 61.8716 41.0369 62.02 41.486C62.1665 41.9382 62.1697 42.4465 61.9946 42.8911C61.8372 43.2981 61.5073 43.6178 61.1239 43.8165C60.4487 44.1656 59.6684 44.2401 58.9188 44.2286C57.1442 44.2076 55.42 43.5063 54.0474 42.3987C54.0442 43.3407 54.0481 44.2821 54.0455 45.2235C55.1895 46.0089 56.5608 46.4025 57.9283 46.556C59.0239 46.6726 60.1442 46.6337 61.2124 46.3509C61.9946 46.1407 62.75 45.7879 63.364 45.2528Z" fill="#F4F9F9"/>
<path fill-rule="evenodd" clip-rule="evenodd" d="M127.288 45.53C127.911 45.0994 128.418 44.4956 128.709 43.7949C129.056 42.9746 129.089 42.0554 128.961 41.1841C128.841 40.3854 128.493 39.6166 127.932 39.0319C127.324 38.3841 126.527 37.9523 125.711 37.6242C124.795 37.279 123.872 36.9535 122.953 36.6147C122.393 36.4109 121.811 36.2083 121.358 35.8077C120.773 35.2968 120.664 34.372 121.011 33.6975C121.344 33.079 122.049 32.7867 122.71 32.6726C123.946 32.4803 125.233 32.6835 126.372 33.193C127.031 33.4835 127.635 33.879 128.209 34.3096C128.214 33.3854 128.209 32.4605 128.211 31.5363C126.88 30.6676 125.279 30.2612 123.698 30.2472C122.428 30.2172 121.118 30.4777 120.038 31.1695C119.363 31.6026 118.803 32.2312 118.502 32.979C118.254 33.5758 118.174 34.2332 118.213 34.8752C118.246 35.5828 118.427 36.2937 118.803 36.9C119.18 37.5134 119.74 37.9956 120.356 38.3593C121.025 38.7605 121.762 39.0255 122.495 39.2847C123.251 39.5663 124.022 39.8109 124.765 40.1281C125.219 40.3338 125.683 40.5644 126.013 40.9504C126.388 41.3854 126.481 42.0039 126.381 42.5561C126.3 43.0274 126 43.4459 125.597 43.6988C125.076 44.0338 124.452 44.1574 123.844 44.2045C123.244 44.2389 122.64 44.214 122.049 44.1064C120.685 43.8726 119.406 43.2453 118.331 42.3822C118.327 43.3236 118.332 44.265 118.328 45.2064C119.171 45.7949 120.155 46.1542 121.154 46.3739C122.357 46.6274 123.609 46.6879 124.825 46.4879C125.697 46.3395 126.558 46.0427 127.288 45.53Z" fill="#F4F9F9"/>
<path fill-rule="evenodd" clip-rule="evenodd" d="M144.436 39.4391C143.929 38.7264 143.185 38.2187 142.402 37.8506C141.547 37.4614 140.647 37.185 139.77 36.8512C139.022 36.5588 138.208 36.362 137.573 35.8461C136.989 35.378 136.845 34.5098 137.115 33.8346C137.257 33.485 137.535 33.206 137.861 33.0219C138.309 32.7659 138.826 32.6557 139.338 32.6162C140.345 32.5487 141.368 32.7111 142.303 33.0907C143.049 33.3907 143.734 33.8206 144.37 34.3073C144.37 33.4136 144.37 32.5194 144.37 31.6251C144.376 31.5639 144.356 31.5047 144.298 31.4805C142.911 30.6092 141.253 30.2206 139.624 30.2474C138.826 30.2436 138.026 30.376 137.275 30.6442C136.44 30.9467 135.66 31.4499 135.129 32.1697C134.656 32.7977 134.407 33.5773 134.378 34.3601C134.348 35.2009 134.491 36.069 134.917 36.8053C135.308 37.4913 135.929 38.0194 136.609 38.4079C137.456 38.8983 138.399 39.1792 139.312 39.5181C140.08 39.8028 140.876 40.0385 141.585 40.4595C141.973 40.6888 142.323 41.02 142.474 41.455C142.629 41.9149 142.631 42.4334 142.454 42.8881C142.303 43.2716 141.997 43.576 141.642 43.7754C140.957 44.1512 140.154 44.2302 139.385 44.2168C137.606 44.1996 135.877 43.4939 134.501 42.3824C134.508 43.3264 134.484 44.2729 134.513 45.2155C135.268 45.7461 136.146 46.0818 137.036 46.3079C138.004 46.5448 139.006 46.6429 140.001 46.5945C140.893 46.5493 141.787 46.3773 142.605 46.0111C143.368 45.6729 144.063 45.1448 144.529 44.4455C144.993 43.7544 145.212 42.9143 145.196 42.0862C145.206 41.1576 144.988 40.1996 144.436 39.4391Z" fill="#F4F9F9"/>
<path fill-rule="evenodd" clip-rule="evenodd" d="M95.3854 46.6213C95.3873 41.2493 95.3867 35.878 95.3854 30.5066C94.5224 30.5072 93.6587 30.5072 92.7963 30.5072C92.7924 33.8767 92.7982 37.2467 92.7931 40.6168C89.1708 37.1665 85.5555 33.7092 81.9357 30.2576C81.937 35.6251 81.9338 40.9926 81.937 46.3595C82.7988 46.3614 83.6606 46.3563 84.5224 46.362C84.5338 42.9359 84.5211 39.5092 84.5294 36.0837C85.716 37.2155 86.8835 38.369 88.0644 39.5085C90.5033 41.8799 92.9466 44.248 95.3854 46.6213Z" fill="#F4F9F9"/>
<path fill-rule="evenodd" clip-rule="evenodd" d="M26.6517 42.2255C26.5561 42.7663 26.2332 43.2625 25.7695 43.5599C25.2256 43.9166 24.5587 44.0211 23.9186 44.0281C22.7918 44.0275 21.6651 44.0287 20.5377 44.0268C20.5377 42.4848 20.5383 40.9421 20.5377 39.4001C21.6644 39.3982 22.7912 39.4007 23.9179 39.3988C24.3631 39.3918 24.8128 39.4472 25.2351 39.5937C25.6975 39.751 26.123 40.0485 26.3791 40.4714C26.6969 40.9912 26.7593 41.6345 26.6517 42.2255ZM22.8823 32.8389C23.4332 32.8402 23.9899 32.8319 24.5332 32.944C25.0141 33.0421 25.4988 33.2466 25.8173 33.6332C26.1791 34.065 26.2689 34.658 26.23 35.2039C26.1988 35.7007 26.0103 36.2052 25.6288 36.5396C25.1109 36.995 24.3969 37.1262 23.7281 37.1587C22.6663 37.1676 21.6045 37.1548 20.5434 37.165C20.5313 35.7236 20.5415 34.2816 20.5377 32.8396C21.3198 32.8383 22.1007 32.8396 22.8823 32.8389ZM29.037 40.3096C28.6975 39.4918 28.0708 38.7931 27.281 38.388C27.1319 38.3058 26.9651 38.2599 26.8224 38.1663C27.688 37.8275 28.3319 37.0517 28.6141 36.1784C28.8797 35.365 28.8784 34.4765 28.6899 33.6466C28.5167 32.9077 28.1147 32.2217 27.5364 31.7281C26.8275 31.1122 25.9147 30.7854 24.9995 30.6313C24.0358 30.4631 23.0549 30.516 22.081 30.5071C20.695 30.5071 19.3103 30.5071 17.9243 30.5077C17.923 35.7912 17.923 41.0752 17.9243 46.3593C19.7644 46.3599 21.6052 46.3593 23.4453 46.3599C24.2823 46.3727 25.1281 46.3447 25.944 46.1389C26.8912 45.9084 27.8096 45.4345 28.4294 44.665C28.9791 43.9937 29.2606 43.1351 29.3205 42.2771C29.3791 41.6109 29.3014 40.9268 29.037 40.3096Z" fill="#F4F9F9"/>
<path fill-rule="evenodd" clip-rule="evenodd" d="M44.4465 46.0234C45.4899 45.561 46.3771 44.7521 46.9179 43.7451C47.5446 42.5947 47.7663 41.2622 47.7453 39.9635C47.7453 36.8113 47.7453 33.6591 47.7446 30.5075C46.8497 30.5068 45.9555 30.5068 45.0612 30.5075C45.0586 33.5349 45.0606 36.5623 45.0599 39.589C45.0688 40.3731 45.0058 41.168 44.7637 41.9177C44.558 42.5482 44.2026 43.1508 43.6631 43.5514C43.0204 44.0419 42.1892 44.21 41.395 44.2056C40.6134 44.2068 39.802 44.0355 39.1669 43.5584C38.5236 43.0814 38.1402 42.333 37.9574 41.5673C37.7192 40.6279 37.7593 39.6514 37.7574 38.6909C37.7574 35.9635 37.758 33.2349 37.7574 30.5068C36.8625 30.5068 35.9676 30.5068 35.0733 30.5075C35.0707 33.6431 35.0733 36.7782 35.072 39.9138C35.0618 40.8049 35.1567 41.703 35.4147 42.5572C35.644 43.3056 36.0032 44.0196 36.5102 44.6177C36.9351 45.1272 37.4663 45.5457 38.0523 45.8578C38.8504 46.2852 39.7453 46.5081 40.644 46.5852C41.9293 46.6884 43.2599 46.5527 44.4465 46.0234Z" fill="#F4F9F9"/>
<path fill-rule="evenodd" clip-rule="evenodd" d="M71.6227 30.5046C71.6132 35.7894 71.6202 41.0747 71.6196 46.3601C72.5157 46.355 73.4126 46.369 74.3087 46.353C74.2966 41.0715 74.3087 35.7887 74.303 30.5072C73.4094 30.5053 72.5157 30.5104 71.6227 30.5046Z" fill="#F4F9F9"/>
<path fill-rule="evenodd" clip-rule="evenodd" d="M112.109 43.945C109.794 43.9456 107.478 43.9456 105.163 43.945C105.161 42.3125 105.161 40.6794 105.163 39.0462C107.239 39.0456 109.315 39.0462 111.391 39.0462C111.393 38.2603 111.393 37.4755 111.391 36.6902C109.315 36.6896 107.239 36.6915 105.163 36.6896C105.161 35.4259 105.161 34.1622 105.163 32.8978C107.478 32.8972 109.794 32.8985 112.11 32.8978C112.111 32.1004 112.111 31.3036 112.11 30.5068C108.916 30.5042 105.723 30.5125 102.529 30.5029C102.515 31.5048 102.528 32.5074 102.523 33.5099C102.527 37.7946 102.517 42.0787 102.528 46.3622C105.722 46.3558 108.916 46.3609 112.11 46.3596C112.111 45.5545 112.112 44.7501 112.109 43.945Z" fill="#F4F9F9"/>
<path fill-rule="evenodd" clip-rule="evenodd" d="M49.6066 54.5812C49.6041 57.8958 49.6085 61.2111 49.6041 64.5264C46.0073 61.129 42.4143 57.7264 38.8206 54.3264C38.8136 59.6086 38.8187 64.8914 38.8181 70.1735C39.6773 70.1755 40.5366 70.1735 41.3958 70.1735C41.3971 66.8009 41.3964 63.4283 41.3964 60.0544C44.9907 63.5086 48.5754 66.9735 52.1735 70.4226C52.1722 65.1423 52.1735 59.8614 52.1729 54.5812C51.3175 54.5806 50.462 54.5806 49.6066 54.5812Z" fill="#F4F9F9"/>
<path fill-rule="evenodd" clip-rule="evenodd" d="M68.1855 62.6418C67.5721 62.1214 66.839 61.7641 66.088 61.4889C65.1434 61.1462 64.1969 60.808 63.2523 60.4641C62.7791 60.2819 62.2918 60.08 61.9275 59.7144C61.4568 59.2609 61.3587 58.5182 61.5632 57.9176C61.6893 57.5615 61.9587 57.2685 62.281 57.0794C62.7109 56.8214 63.2097 56.708 63.7046 56.6583C64.7447 56.5749 65.8052 56.7335 66.7714 57.131C67.5033 57.4239 68.174 57.8501 68.8027 58.3227C68.8039 57.4087 68.8052 56.4953 68.802 55.5806C67.546 54.7762 66.0581 54.3806 64.5759 54.3239C63.4657 54.2736 62.3288 54.4239 61.3122 54.8889C60.6052 55.2112 59.9613 55.6991 59.5224 56.3456C59.0848 56.9806 58.8689 57.7558 58.8734 58.5246C58.8593 59.3361 59.0294 60.1673 59.4638 60.8615C59.8925 61.552 60.553 62.0704 61.2657 62.445C62.0562 62.8698 62.9199 63.129 63.7587 63.4392C64.495 63.7093 65.253 63.9373 65.9421 64.3208C66.3421 64.5456 66.7224 64.8634 66.8931 65.3036C67.0549 65.7239 67.0676 66.201 66.937 66.6316C66.8052 67.0634 66.4772 67.415 66.0861 67.6297C65.4122 67.9966 64.6237 68.0768 63.8689 68.0673C62.1001 68.0532 60.374 67.3647 59.0058 66.2609C59.0014 67.1876 59.0097 68.115 59.0007 69.0424C59.3663 69.3125 59.7791 69.5118 60.1944 69.6934C61.1651 70.0985 62.2058 70.3195 63.253 70.3908C64.2638 70.4526 65.2931 70.3985 66.2683 70.1106C67.0504 69.8825 67.8039 69.5074 68.3956 68.9405C68.9593 68.4144 69.3549 67.7144 69.5135 66.9603C69.6785 66.18 69.639 65.3609 69.4396 64.5908C69.239 63.829 68.7867 63.1462 68.1855 62.6418Z" fill="#F4F9F9"/>
<path fill-rule="evenodd" clip-rule="evenodd" d="M28.5246 70.1738C29.4189 70.1744 30.3138 70.1751 31.2087 70.1738V54.5814C30.3138 54.5808 29.4189 54.5808 28.5246 54.5808C28.5227 59.7789 28.5234 64.9764 28.5246 70.1738Z" fill="#F4F9F9"/>
<path fill-rule="evenodd" clip-rule="evenodd" d="M76.4953 70.1738C77.3857 70.1738 78.2774 70.1757 79.1679 70.1738C79.1685 64.9764 79.1685 59.7789 79.1679 54.5814C78.2774 54.5808 77.3857 54.5814 76.4959 54.5808C76.494 59.7789 76.4946 64.9764 76.4953 70.1738Z" fill="#F4F9F9"/>
<path fill-rule="evenodd" clip-rule="evenodd" d="M97.6624 64.3324C97.4382 65.1757 97.0147 65.9808 96.3726 66.5795C95.6478 67.2674 94.6739 67.6432 93.6917 67.7579C93.1752 67.8254 92.6554 67.8037 92.137 67.8069C91.2924 67.8069 90.4478 67.8082 89.6032 67.8069C89.6038 64.1795 89.6038 60.5521 89.6032 56.9254C90.4013 56.9235 91.1994 56.9247 91.9962 56.9241C92.5134 56.9286 93.0319 56.9069 93.5484 56.9604C94.4026 57.0432 95.2567 57.3044 95.9567 57.812C96.5663 58.2445 97.0414 58.8528 97.3503 59.5318C97.672 60.2356 97.8306 61.0044 97.8828 61.7738C97.9389 62.6311 97.8828 63.5005 97.6624 64.3324ZM97.6605 55.9693C96.3535 55.0203 94.7229 54.6025 93.1229 54.5808C91.0624 54.5802 89.0026 54.5802 86.9427 54.5808C86.9414 59.7789 86.9421 64.9763 86.9421 70.1738C89.0038 70.1757 91.0656 70.1738 93.1268 70.1751C94.1809 70.1604 95.2389 69.9776 96.2178 69.5808C97.4707 69.0802 98.5733 68.1967 99.307 67.0623C100.197 65.7146 100.567 64.0821 100.581 62.4821C100.591 61.363 100.436 60.2337 100.052 59.1789C99.5917 57.9069 98.7663 56.7572 97.6605 55.9693Z" fill="#F4F9F9"/>
<path fill-rule="evenodd" clip-rule="evenodd" d="M115.713 54.5798C112.538 54.5824 109.362 54.5798 106.187 54.5811C106.186 59.7786 106.186 64.976 106.187 70.1735C109.362 70.1747 112.539 70.1741 115.714 70.1735C115.715 69.3849 115.715 68.5964 115.714 67.8072C113.414 67.8072 111.113 67.8079 108.813 67.8072V62.9792C110.875 62.9741 112.938 62.9862 114.999 62.9728C114.992 62.2053 114.998 61.4378 114.996 60.6703C112.936 60.6703 110.876 60.6684 108.816 60.6709C108.809 59.4225 108.814 58.1735 108.814 56.9244C111.113 56.9244 113.414 56.9251 115.714 56.9244C115.714 56.1429 115.717 55.3614 115.713 54.5798Z" fill="#F4F9F9"/>
<path fill-rule="evenodd" clip-rule="evenodd" d="M126.316 61.6353C126.315 60.0494 126.315 58.464 126.316 56.8774C127.061 56.8767 127.807 56.8774 128.553 56.8774C129.129 56.8812 129.716 56.8443 130.279 56.9959C130.836 57.1334 131.367 57.45 131.681 57.9417C132.016 58.457 132.098 59.1022 132.008 59.7016C131.937 60.1761 131.716 60.6322 131.358 60.9576C130.833 61.4404 130.098 61.6232 129.4 61.6353H126.316ZM132.511 63.329C133.147 63.0392 133.701 62.5666 134.056 61.9634C134.531 61.1595 134.686 60.2067 134.679 59.285C134.694 58.3838 134.501 57.4595 134.021 56.6882C133.619 56.0328 133.01 55.515 132.319 55.185C131.444 54.7557 130.46 54.5997 129.493 54.5806C127.547 54.5806 125.6 54.5812 123.654 54.5806C123.652 59.7787 123.653 64.9761 123.654 70.1736C124.539 70.1755 125.425 70.1716 126.31 70.1761C126.322 68.0678 126.311 65.9589 126.316 63.8506C126.938 63.8494 127.561 63.8506 128.185 63.85C130.01 65.9551 131.826 68.0672 133.65 70.1736C134.661 70.1736 135.673 70.1755 136.685 70.1729C134.809 68.0315 132.928 65.8946 131.051 63.7551C131.552 63.6729 132.049 63.5455 132.511 63.329Z" fill="#F4F9F9"/>
<mask id="mask0_53:2106" style="mask-type:alpha" maskUnits="userSpaceOnUse" x="0" y="0" width="164" height="101">
<path fill-rule="evenodd" clip-rule="evenodd" d="M0 100.299H163.134V0.356445H0V100.299Z" fill="white"/>
</mask>
<g mask="url(#mask0_53:2106)">
</g>
</svg>
