<svg width="180" height="13" viewBox="0 0 180 13" fill="none" xmlns="http://www.w3.org/2000/svg">
<path d="M5.9655 12.08C4.89883 12.08 3.92817 11.8293 3.0535 11.328C2.17883 10.816 1.49083 10.128 0.9895 9.264C0.488167 8.38933 0.2375 7.41867 0.2375 6.352C0.2375 5.28533 0.488167 4.32 0.9895 3.456C1.49083 2.58133 2.17883 1.89333 3.0535 1.392C3.92817 0.890666 4.89883 0.639999 5.9655 0.639999C7.03217 0.639999 7.9975 0.890666 8.8615 1.392C9.73617 1.89333 10.4242 2.58133 10.9255 3.456C11.4268 4.32 11.6775 5.28533 11.6775 6.352C11.6775 7.41867 11.4268 8.38933 10.9255 9.264C10.4242 10.128 9.73617 10.816 8.8615 11.328C7.98683 11.8293 7.0215 12.08 5.9655 12.08ZM5.9655 11.36C6.8935 11.36 7.73617 11.1413 8.4935 10.704C9.25083 10.2667 9.84283 9.664 10.2695 8.896C10.7068 8.128 10.9255 7.28 10.9255 6.352C10.9255 5.424 10.7068 4.58133 10.2695 3.824C9.84283 3.056 9.25083 2.45333 8.4935 2.016C7.73617 1.57867 6.8935 1.36 5.9655 1.36C5.02683 1.36 4.17883 1.57867 3.4215 2.016C2.66417 2.45333 2.06683 3.056 1.6295 3.824C1.20283 4.58133 0.9895 5.424 0.9895 6.352C0.9895 7.28 1.20283 8.128 1.6295 8.896C2.06683 9.664 2.66417 10.2667 3.4215 10.704C4.17883 11.1413 5.02683 11.36 5.9655 11.36ZM6.0775 9.808C5.09617 9.808 4.31217 9.49867 3.7255 8.88C3.13883 8.26133 2.8455 7.41867 2.8455 6.352C2.8455 5.296 3.13883 4.45867 3.7255 3.84C4.31217 3.22133 5.09617 2.912 6.0775 2.912C6.88817 2.912 7.60283 3.152 8.2215 3.632C8.37083 3.73867 8.4455 3.888 8.4455 4.08C8.4455 4.208 8.40817 4.32533 8.3335 4.432C8.2695 4.528 8.1735 4.576 8.0455 4.576C7.9495 4.576 7.82683 4.53333 7.6775 4.448C7.36817 4.256 7.10683 4.11733 6.8935 4.032C6.68017 3.936 6.42417 3.888 6.1255 3.888C5.46417 3.888 4.9575 4.10133 4.6055 4.528C4.26417 4.944 4.0935 5.552 4.0935 6.352C4.0935 7.16267 4.26417 7.78133 4.6055 8.208C4.9575 8.624 5.46417 8.832 6.1255 8.832C6.42417 8.832 6.68017 8.78933 6.8935 8.704C7.10683 8.608 7.36817 8.464 7.6775 8.272C7.82683 8.18667 7.9495 8.144 8.0455 8.144C8.1735 8.144 8.2695 8.19733 8.3335 8.304C8.40817 8.4 8.4455 8.512 8.4455 8.64C8.4455 8.82133 8.37083 8.97067 8.2215 9.088C7.6775 9.568 6.96283 9.808 6.0775 9.808ZM26.7374 10.896C26.9294 10.896 27.0787 10.944 27.1854 11.04C27.292 11.136 27.3454 11.2693 27.3454 11.44C27.3454 11.8133 27.1427 12 26.7374 12H20.4654C20.284 12 20.1347 11.9467 20.0174 11.84C19.9 11.7227 19.8414 11.584 19.8414 11.424C19.8414 11.2213 19.916 11.0453 20.0654 10.896L23.9214 6.656C24.4547 6.05867 24.8387 5.52533 25.0734 5.056C25.3187 4.576 25.4414 4.096 25.4414 3.616C25.4414 2.99733 25.26 2.52267 24.8974 2.192C24.5454 1.86133 24.044 1.696 23.3934 1.696C22.8814 1.696 22.3907 1.792 21.9214 1.984C21.452 2.16533 20.9827 2.448 20.5134 2.832C20.3534 2.96 20.204 3.024 20.0654 3.024C19.948 3.024 19.8467 2.97067 19.7614 2.864C19.676 2.74667 19.6334 2.608 19.6334 2.448C19.6334 2.224 19.7187 2.04267 19.8894 1.904C20.3267 1.49867 20.86 1.17867 21.4894 0.943999C22.1187 0.709332 22.764 0.591999 23.4254 0.591999C24.4387 0.591999 25.244 0.858666 25.8414 1.392C26.4494 1.92533 26.7534 2.64533 26.7534 3.552C26.7534 4.20267 26.604 4.82667 26.3054 5.424C26.0174 6.02133 25.5374 6.688 24.8654 7.424L21.6654 10.896H26.7374ZM34.0031 12.128C32.7125 12.128 31.7311 11.6373 31.0591 10.656C30.3871 9.67467 30.0511 8.24533 30.0511 6.368C30.0511 4.48 30.3871 3.04533 31.0591 2.064C31.7311 1.08267 32.7125 0.591999 34.0031 0.591999C35.2938 0.591999 36.2751 1.08267 36.9471 2.064C37.6191 3.03467 37.9551 4.464 37.9551 6.352C37.9551 8.24 37.6191 9.67467 36.9471 10.656C36.2751 11.6373 35.2938 12.128 34.0031 12.128ZM34.0031 11.024C34.8991 11.024 35.5605 10.6453 35.9871 9.888C36.4138 9.13067 36.6271 7.952 36.6271 6.352C36.6271 4.74133 36.4138 3.56267 35.9871 2.816C35.5711 2.06933 34.9098 1.696 34.0031 1.696C33.1071 1.696 32.4458 2.07467 32.0191 2.832C31.5925 3.57867 31.3791 4.752 31.3791 6.352C31.3791 7.952 31.5925 9.13067 32.0191 9.888C32.4458 10.6453 33.1071 11.024 34.0031 11.024ZM47.9249 10.896C48.1169 10.896 48.2662 10.944 48.3729 11.04C48.4795 11.136 48.5329 11.2693 48.5329 11.44C48.5329 11.8133 48.3302 12 47.9249 12H41.6529C41.4715 12 41.3222 11.9467 41.2049 11.84C41.0875 11.7227 41.0289 11.584 41.0289 11.424C41.0289 11.2213 41.1035 11.0453 41.2529 10.896L45.1089 6.656C45.6422 6.05867 46.0262 5.52533 46.2609 5.056C46.5062 4.576 46.6289 4.096 46.6289 3.616C46.6289 2.99733 46.4475 2.52267 46.0849 2.192C45.7329 1.86133 45.2315 1.696 44.5809 1.696C44.0689 1.696 43.5782 1.792 43.1089 1.984C42.6395 2.16533 42.1702 2.448 41.7009 2.832C41.5409 2.96 41.3915 3.024 41.2529 3.024C41.1355 3.024 41.0342 2.97067 40.9489 2.864C40.8635 2.74667 40.8209 2.608 40.8209 2.448C40.8209 2.224 40.9062 2.04267 41.0769 1.904C41.5142 1.49867 42.0475 1.17867 42.6769 0.943999C43.3062 0.709332 43.9515 0.591999 44.6129 0.591999C45.6262 0.591999 46.4315 0.858666 47.0289 1.392C47.6369 1.92533 47.9409 2.64533 47.9409 3.552C47.9409 4.20267 47.7915 4.82667 47.4929 5.424C47.2049 6.02133 46.7249 6.688 46.0529 7.424L42.8529 10.896H47.9249ZM58.2626 10.896C58.4546 10.896 58.604 10.944 58.7106 11.04C58.8173 11.136 58.8706 11.2693 58.8706 11.44C58.8706 11.6213 58.8173 11.76 58.7106 11.856C58.6146 11.952 58.4653 12 58.2626 12H52.9666C52.764 12 52.6093 11.952 52.5026 11.856C52.4066 11.76 52.3586 11.6213 52.3586 11.44C52.3586 11.2693 52.412 11.136 52.5186 11.04C52.6253 10.944 52.7746 10.896 52.9666 10.896H54.9506V2.32L53.2066 3.456C53.1213 3.50933 53.036 3.536 52.9506 3.536C52.8013 3.536 52.668 3.46667 52.5506 3.328C52.444 3.18933 52.3906 3.04 52.3906 2.88C52.3906 2.656 52.476 2.496 52.6466 2.4L55.0786 0.815999C55.26 0.698666 55.4466 0.639999 55.6386 0.639999C55.82 0.639999 55.9693 0.698666 56.0866 0.815999C56.204 0.933333 56.2626 1.09867 56.2626 1.312V10.896H58.2626ZM71.1014 12.128C70.3014 12.128 69.5334 12.0107 68.7974 11.776C68.072 11.5307 67.4907 11.2053 67.0534 10.8C66.8934 10.6507 66.8134 10.464 66.8134 10.24C66.8134 10.0907 66.856 9.96267 66.9414 9.856C67.0267 9.73867 67.128 9.68 67.2454 9.68C67.384 9.68 67.5334 9.73867 67.6934 9.856C68.6854 10.624 69.816 11.008 71.0854 11.008C72.0027 11.008 72.7067 10.832 73.1974 10.48C73.688 10.128 73.9334 9.62667 73.9334 8.976C73.9334 8.60267 73.816 8.304 73.5814 8.08C73.3467 7.84533 73.0374 7.65867 72.6534 7.52C72.2694 7.38133 71.752 7.23733 71.1014 7.088C70.2267 6.88533 69.5067 6.672 68.9414 6.448C68.3867 6.224 67.9334 5.904 67.5814 5.488C67.24 5.072 67.0694 4.528 67.0694 3.856C67.0694 3.216 67.24 2.65067 67.5814 2.16C67.9334 1.65867 68.4187 1.27467 69.0374 1.008C69.6667 0.730666 70.3814 0.591999 71.1814 0.591999C71.928 0.591999 72.6214 0.709332 73.2614 0.943999C73.912 1.168 74.456 1.49333 74.8934 1.92C75.064 2.09067 75.1494 2.27733 75.1494 2.48C75.1494 2.62933 75.1067 2.76267 75.0214 2.88C74.936 2.98667 74.8347 3.04 74.7174 3.04C74.6 3.04 74.4454 2.98133 74.2534 2.864C73.7307 2.43733 73.2454 2.13867 72.7974 1.968C72.3494 1.79733 71.8107 1.712 71.1814 1.712C70.296 1.712 69.608 1.89867 69.1174 2.272C68.6267 2.63467 68.3814 3.14667 68.3814 3.808C68.3814 4.37333 68.5947 4.8 69.0214 5.088C69.4587 5.36533 70.1254 5.61067 71.0214 5.824C71.992 6.05867 72.7547 6.27733 73.3094 6.48C73.864 6.672 74.3227 6.96533 74.6854 7.36C75.0587 7.75467 75.2454 8.28267 75.2454 8.944C75.2454 9.57333 75.0694 10.128 74.7174 10.608C74.376 11.088 73.8907 11.4613 73.2614 11.728C72.632 11.9947 71.912 12.128 71.1014 12.128ZM84.4084 10.976C84.579 11.136 84.6644 11.3067 84.6644 11.488C84.6644 11.648 84.6057 11.7867 84.4884 11.904C84.3817 12.0213 84.2484 12.08 84.0884 12.08C83.9497 12.08 83.8057 12.016 83.6564 11.888L79.4804 8.288V11.44C79.4804 11.6427 79.4164 11.8027 79.2884 11.92C79.171 12.0267 79.0217 12.08 78.8404 12.08C78.6484 12.08 78.4884 12.0267 78.3604 11.92C78.243 11.8027 78.1844 11.6427 78.1844 11.44V1.28C78.1844 1.07733 78.243 0.922666 78.3604 0.815999C78.4884 0.698666 78.6484 0.639999 78.8404 0.639999C79.0217 0.639999 79.171 0.698666 79.2884 0.815999C79.4164 0.922666 79.4804 1.07733 79.4804 1.28V7.776L83.3044 4.272C83.4324 4.144 83.5764 4.08 83.7364 4.08C83.8964 4.08 84.035 4.13867 84.1524 4.256C84.2697 4.37333 84.3284 4.512 84.3284 4.672C84.3284 4.85333 84.2537 5.01333 84.1044 5.152L80.9524 7.968L84.4084 10.976ZM87.8404 12.08C87.6484 12.08 87.4884 12.0267 87.3604 11.92C87.243 11.8027 87.1844 11.6427 87.1844 11.44V4.688C87.1844 4.48533 87.243 4.33067 87.3604 4.224C87.4884 4.10667 87.6484 4.048 87.8404 4.048C88.0324 4.048 88.187 4.10667 88.3044 4.224C88.4217 4.33067 88.4804 4.48533 88.4804 4.688V11.44C88.4804 11.6533 88.4217 11.8133 88.3044 11.92C88.187 12.0267 88.0324 12.08 87.8404 12.08ZM87.8404 2.368C87.5844 2.368 87.3764 2.29333 87.2164 2.144C87.0564 1.99467 86.9764 1.79733 86.9764 1.552C86.9764 1.31733 87.0564 1.12533 87.2164 0.976C87.3764 0.826667 87.5844 0.752 87.8404 0.752C88.0964 0.752 88.3044 0.826667 88.4644 0.976C88.6244 1.12533 88.7044 1.31733 88.7044 1.552C88.7044 1.79733 88.6244 1.99467 88.4644 2.144C88.3044 2.29333 88.0964 2.368 87.8404 2.368ZM92.5591 12.08C92.3671 12.08 92.2071 12.0267 92.0791 11.92C91.9618 11.8027 91.9031 11.6427 91.9031 11.44V1.28C91.9031 1.07733 91.9618 0.922666 92.0791 0.815999C92.2071 0.698666 92.3671 0.639999 92.5591 0.639999C92.7405 0.639999 92.8898 0.698666 93.0071 0.815999C93.1351 0.922666 93.1991 1.07733 93.1991 1.28V11.44C93.1991 11.6427 93.1351 11.8027 93.0071 11.92C92.8898 12.0267 92.7405 12.08 92.5591 12.08ZM97.2779 12.08C97.0859 12.08 96.9259 12.0267 96.7979 11.92C96.6805 11.8027 96.6219 11.6427 96.6219 11.44V1.28C96.6219 1.07733 96.6805 0.922666 96.7979 0.815999C96.9259 0.698666 97.0859 0.639999 97.2779 0.639999C97.4592 0.639999 97.6085 0.698666 97.7259 0.815999C97.8539 0.922666 97.9179 1.07733 97.9179 1.28V11.44C97.9179 11.6427 97.8539 11.8027 97.7259 11.92C97.6085 12.0267 97.4592 12.08 97.2779 12.08ZM110.141 11.184C110.215 11.3013 110.253 11.424 110.253 11.552C110.253 11.712 110.189 11.8453 110.061 11.952C109.943 12.048 109.805 12.096 109.645 12.096C109.399 12.096 109.207 11.9893 109.069 11.776L106.925 8.384C106.647 7.94667 106.359 7.648 106.061 7.488C105.762 7.31733 105.357 7.232 104.845 7.232H102.829V11.408C102.829 11.6107 102.77 11.776 102.653 11.904C102.535 12.0213 102.381 12.08 102.189 12.08C101.986 12.08 101.826 12.0213 101.709 11.904C101.591 11.776 101.533 11.6107 101.533 11.408V1.36C101.533 1.168 101.591 1.01333 101.709 0.896C101.837 0.778666 102.002 0.719999 102.205 0.719999H106.173C107.399 0.719999 108.333 0.991999 108.973 1.536C109.623 2.08 109.949 2.88 109.949 3.936C109.949 4.832 109.687 5.552 109.165 6.096C108.653 6.64 107.917 6.97067 106.957 7.088C107.223 7.17333 107.463 7.312 107.677 7.504C107.89 7.696 108.103 7.96267 108.317 8.304L110.141 11.184ZM106.061 6.144C106.935 6.144 107.586 5.96267 108.013 5.6C108.45 5.23733 108.669 4.688 108.669 3.952C108.669 3.22667 108.455 2.688 108.029 2.336C107.602 1.984 106.946 1.808 106.061 1.808H102.829V6.144H106.061ZM119.341 10.192C119.459 10.192 119.56 10.24 119.645 10.336C119.731 10.432 119.773 10.5547 119.773 10.704C119.773 10.9707 119.587 11.216 119.213 11.44C118.829 11.664 118.424 11.8347 117.997 11.952C117.571 12.0587 117.155 12.112 116.749 12.112C115.544 12.112 114.589 11.7547 113.885 11.04C113.192 10.3253 112.845 9.33867 112.845 8.08C112.845 7.28 113 6.576 113.309 5.968C113.619 5.34933 114.051 4.86933 114.605 4.528C115.171 4.18667 115.811 4.016 116.525 4.016C117.539 4.016 118.344 4.34667 118.941 5.008C119.539 5.66933 119.837 6.56533 119.837 7.696C119.837 7.90933 119.795 8.064 119.709 8.16C119.624 8.256 119.485 8.304 119.293 8.304H114.141C114.237 10.1387 115.107 11.056 116.749 11.056C117.165 11.056 117.523 11.0027 117.821 10.896C118.12 10.7787 118.44 10.624 118.781 10.432C119.059 10.272 119.245 10.192 119.341 10.192ZM116.541 5.024C115.859 5.024 115.309 5.23733 114.893 5.664C114.488 6.09067 114.248 6.69333 114.173 7.472H118.701C118.68 6.68267 118.483 6.08 118.109 5.664C117.736 5.23733 117.213 5.024 116.541 5.024ZM125.931 4.016C127.883 4.016 128.859 5.04 128.859 7.088V11.44C128.859 11.632 128.8 11.7867 128.683 11.904C128.576 12.0213 128.427 12.08 128.235 12.08C128.043 12.08 127.888 12.0213 127.771 11.904C127.654 11.7867 127.595 11.632 127.595 11.44V10.672C127.392 11.1307 127.083 11.488 126.667 11.744C126.251 11.9893 125.771 12.112 125.227 12.112C124.726 12.112 124.262 12.0107 123.835 11.808C123.419 11.6053 123.088 11.3227 122.843 10.96C122.598 10.5973 122.475 10.1973 122.475 9.76C122.475 9.17333 122.624 8.72 122.923 8.4C123.222 8.06933 123.712 7.83467 124.395 7.696C125.078 7.54667 126.027 7.472 127.243 7.472H127.595V6.944C127.595 6.304 127.462 5.83467 127.195 5.536C126.939 5.23733 126.518 5.088 125.931 5.088C125.206 5.088 124.47 5.28533 123.723 5.68C123.435 5.86133 123.232 5.952 123.115 5.952C122.987 5.952 122.88 5.904 122.795 5.808C122.71 5.712 122.667 5.58933 122.667 5.44C122.667 5.29067 122.71 5.16267 122.795 5.056C122.891 4.93867 123.04 4.82133 123.243 4.704C123.616 4.49067 124.038 4.32533 124.507 4.208C124.987 4.08 125.462 4.016 125.931 4.016ZM125.403 11.088C126.043 11.088 126.566 10.8747 126.971 10.448C127.387 10.0107 127.595 9.45067 127.595 8.768V8.304H127.307C126.368 8.304 125.654 8.34667 125.163 8.432C124.672 8.50667 124.32 8.64 124.107 8.832C123.904 9.01333 123.803 9.28533 123.803 9.648C123.803 10.064 123.952 10.4107 124.251 10.688C124.56 10.9547 124.944 11.088 125.403 11.088ZM135.447 12.112C134.722 12.112 134.077 11.9467 133.511 11.616C132.957 11.2853 132.525 10.816 132.215 10.208C131.917 9.6 131.767 8.896 131.767 8.096C131.767 7.296 131.922 6.58667 132.231 5.968C132.551 5.34933 132.994 4.86933 133.559 4.528C134.125 4.18667 134.775 4.016 135.511 4.016C135.917 4.016 136.317 4.07467 136.711 4.192C137.117 4.29867 137.469 4.45867 137.767 4.672C137.959 4.8 138.093 4.928 138.167 5.056C138.253 5.17333 138.295 5.30667 138.295 5.456C138.295 5.60533 138.253 5.728 138.167 5.824C138.093 5.92 137.991 5.968 137.863 5.968C137.789 5.968 137.709 5.94667 137.623 5.904C137.538 5.86133 137.463 5.81867 137.399 5.776C137.346 5.73333 137.309 5.70667 137.287 5.696C137.01 5.51467 136.743 5.37067 136.487 5.264C136.242 5.15733 135.938 5.104 135.575 5.104C134.797 5.104 134.189 5.37067 133.751 5.904C133.325 6.42667 133.111 7.15733 133.111 8.096C133.111 9.03467 133.325 9.76 133.751 10.272C134.189 10.784 134.797 11.04 135.575 11.04C135.938 11.04 136.247 10.9867 136.503 10.88C136.77 10.7733 137.037 10.6293 137.303 10.448C137.421 10.3733 137.533 10.3093 137.639 10.256C137.746 10.2027 137.837 10.176 137.911 10.176C138.029 10.176 138.125 10.224 138.199 10.32C138.285 10.416 138.327 10.5387 138.327 10.688C138.327 10.8267 138.29 10.9547 138.215 11.072C138.141 11.1787 138.002 11.3013 137.799 11.44C137.501 11.6427 137.138 11.808 136.711 11.936C136.295 12.0533 135.874 12.112 135.447 12.112ZM144.503 11.056C144.876 11.088 145.063 11.2587 145.063 11.568C145.063 11.7493 144.994 11.888 144.855 11.984C144.727 12.0693 144.53 12.1013 144.263 12.08L143.831 12.048C142.978 11.984 142.348 11.728 141.943 11.28C141.538 10.832 141.335 10.1547 141.335 9.248V5.232H140.263C140.082 5.232 139.938 5.18933 139.831 5.104C139.735 5.008 139.687 4.88533 139.687 4.736C139.687 4.576 139.735 4.448 139.831 4.352C139.938 4.256 140.082 4.208 140.263 4.208H141.335V2.4C141.335 2.19733 141.394 2.04267 141.511 1.936C141.628 1.81867 141.788 1.76 141.991 1.76C142.183 1.76 142.338 1.81867 142.455 1.936C142.572 2.04267 142.631 2.19733 142.631 2.4V4.208H144.407C144.578 4.208 144.711 4.256 144.807 4.352C144.914 4.448 144.967 4.576 144.967 4.736C144.967 4.88533 144.914 5.008 144.807 5.104C144.711 5.18933 144.578 5.232 144.407 5.232H142.631V9.312C142.631 9.89867 142.748 10.3253 142.983 10.592C143.228 10.848 143.591 10.992 144.071 11.024L144.503 11.056ZM150.573 12.112C149.837 12.112 149.186 11.9467 148.621 11.616C148.066 11.2853 147.634 10.816 147.325 10.208C147.026 9.58933 146.877 8.87467 146.877 8.064C146.877 7.25333 147.026 6.544 147.325 5.936C147.634 5.31733 148.066 4.84267 148.621 4.512C149.186 4.18133 149.837 4.016 150.573 4.016C151.309 4.016 151.959 4.18133 152.525 4.512C153.09 4.84267 153.522 5.31733 153.821 5.936C154.13 6.544 154.285 7.25333 154.285 8.064C154.285 8.87467 154.13 9.58933 153.821 10.208C153.522 10.816 153.09 11.2853 152.525 11.616C151.959 11.9467 151.309 12.112 150.573 12.112ZM150.573 11.04C151.341 11.04 151.927 10.7893 152.333 10.288C152.749 9.776 152.957 9.03467 152.957 8.064C152.957 7.11467 152.749 6.384 152.333 5.872C151.917 5.34933 151.33 5.088 150.573 5.088C149.815 5.088 149.229 5.34933 148.813 5.872C148.397 6.384 148.189 7.11467 148.189 8.064C148.189 9.024 148.391 9.76 148.797 10.272C149.213 10.784 149.805 11.04 150.573 11.04ZM161.072 4.048C161.52 4.016 161.744 4.19733 161.744 4.592C161.744 4.76267 161.696 4.90133 161.6 5.008C161.504 5.104 161.338 5.16267 161.104 5.184L160.624 5.232C159.909 5.296 159.376 5.552 159.024 6C158.682 6.43733 158.512 6.95467 158.512 7.552V11.44C158.512 11.6533 158.453 11.8133 158.336 11.92C158.218 12.0267 158.064 12.08 157.872 12.08C157.68 12.08 157.52 12.0267 157.392 11.92C157.274 11.8027 157.216 11.6427 157.216 11.44V4.688C157.216 4.48533 157.28 4.33067 157.408 4.224C157.536 4.10667 157.69 4.048 157.872 4.048C158.042 4.048 158.186 4.10667 158.304 4.224C158.421 4.33067 158.48 4.48 158.48 4.672V5.568C158.704 5.09867 159.018 4.74133 159.424 4.496C159.84 4.25067 160.314 4.10667 160.848 4.064L161.072 4.048ZM164.153 12.08C163.897 12.08 163.683 12 163.513 11.84C163.342 11.6693 163.257 11.4507 163.257 11.184C163.257 10.9173 163.342 10.6987 163.513 10.528C163.683 10.3573 163.897 10.272 164.153 10.272C164.398 10.272 164.601 10.3573 164.761 10.528C164.931 10.6987 165.017 10.9173 165.017 11.184C165.017 11.4507 164.931 11.6693 164.761 11.84C164.601 12 164.398 12.08 164.153 12.08ZM168.825 12.08C168.633 12.08 168.473 12.0267 168.345 11.92C168.227 11.8027 168.169 11.6427 168.169 11.44V4.688C168.169 4.48533 168.227 4.33067 168.345 4.224C168.473 4.10667 168.633 4.048 168.825 4.048C169.017 4.048 169.171 4.10667 169.289 4.224C169.406 4.33067 169.465 4.48533 169.465 4.688V11.44C169.465 11.6533 169.406 11.8133 169.289 11.92C169.171 12.0267 169.017 12.08 168.825 12.08ZM168.825 2.368C168.569 2.368 168.361 2.29333 168.201 2.144C168.041 1.99467 167.961 1.79733 167.961 1.552C167.961 1.31733 168.041 1.12533 168.201 0.976C168.361 0.826667 168.569 0.752 168.825 0.752C169.081 0.752 169.289 0.826667 169.449 0.976C169.609 1.12533 169.689 1.31733 169.689 1.552C169.689 1.79733 169.609 1.99467 169.449 2.144C169.289 2.29333 169.081 2.368 168.825 2.368ZM176.12 12.112C175.384 12.112 174.733 11.9467 174.168 11.616C173.613 11.2853 173.181 10.816 172.872 10.208C172.573 9.58933 172.424 8.87467 172.424 8.064C172.424 7.25333 172.573 6.544 172.872 5.936C173.181 5.31733 173.613 4.84267 174.168 4.512C174.733 4.18133 175.384 4.016 176.12 4.016C176.856 4.016 177.506 4.18133 178.072 4.512C178.637 4.84267 179.069 5.31733 179.368 5.936C179.677 6.544 179.832 7.25333 179.832 8.064C179.832 8.87467 179.677 9.58933 179.368 10.208C179.069 10.816 178.637 11.2853 178.072 11.616C177.506 11.9467 176.856 12.112 176.12 12.112ZM176.12 11.04C176.888 11.04 177.474 10.7893 177.88 10.288C178.296 9.776 178.504 9.03467 178.504 8.064C178.504 7.11467 178.296 6.384 177.88 5.872C177.464 5.34933 176.877 5.088 176.12 5.088C175.362 5.088 174.776 5.34933 174.36 5.872C173.944 6.384 173.736 7.11467 173.736 8.064C173.736 9.024 173.938 9.76 174.344 10.272C174.76 10.784 175.352 11.04 176.12 11.04Z" fill="white"/>
</svg>
