<svg width="320" height="350" viewBox="0 0 320 350" fill="none" xmlns="http://www.w3.org/2000/svg">
<path d="M170.282 207.237H161.661V349.081H170.282V207.237Z" fill="#4266BE"/>
<path d="M52.0257 258.185H60.6822L22.6206 348.679H18.228L52.0257 258.185Z" fill="#2D4D9A"/>
<path d="M99.1295 258.185H90.4658L128.527 348.679H132.92L99.1295 258.185Z" fill="#2D4D9A"/>
<path d="M34.284 258.185H42.9405L4.87888 348.679H0.486328L34.284 258.185Z" fill="#4266BE"/>
<path d="M81.3807 258.185H72.7241L110.786 348.679H115.178L81.3807 258.185Z" fill="#4266BE"/>
<path d="M30.2556 161.722C26.4987 161.536 21.0491 161.335 16.0351 163.881C12.9853 165.429 10.0427 169.775 11.0426 175.669C12.0425 181.563 17.6993 204.454 17.035 213.816C16.3708 223.178 18.3635 263.759 51.9826 263.759C85.6017 263.759 111.893 257.173 111.893 257.173H130.534V248.153H97.5794C97.5794 248.153 87.2587 243.301 82.6019 228.038C77.9451 212.782 67.1744 163.531 30.2556 161.722Z" fill="#2D4D9A"/>
<path d="M18.8352 168.48C18.8352 168.48 16.8353 172.379 17.5853 177.581C18.3352 182.783 24.3134 201.246 24.0777 221.801C23.8277 243.651 35.5626 264.979 84.2377 255.617" stroke="white" stroke-width="1.5" stroke-linecap="round"/>
<path d="M82.6594 56.0618C91.5302 57.3716 103.129 65.0814 101.13 81.2081C99.6154 93.4129 96.0442 107.493 101.022 113.32C102.687 115.262 102.215 118.663 99.9654 120.613C94.9728 124.952 85.5664 131.426 69.2746 125.13C40.4267 113.982 48.5404 87.3402 52.7829 77.1745C56.3541 68.6386 67.1819 53.7771 82.6594 56.0618Z" fill="#123281"/>
<path d="M83.1165 60.14C95.1585 61.3977 98.744 68.3708 99.344 77.115C99.9439 85.8593 97.1513 88.3375 97.4512 92.7059C97.7512 97.0743 97.337 107.3 86.5877 112.688C86.5877 112.688 82.1952 112.836 77.5812 110.775C74.36 109.331 70.7674 106.131 68.639 102.797C65.5178 97.9153 64.9892 89.3422 65.3321 81.5356C65.5606 76.3709 66.3106 72.1289 68.389 68.661C68.389 68.6536 73.6243 59.1428 83.1165 60.14Z" fill="#FFC17C"/>
<path d="M82.966 89.7588C83.7983 89.7588 84.473 89.0558 84.473 88.1885C84.473 87.3213 83.7983 86.6183 82.966 86.6183C82.1337 86.6183 81.459 87.3213 81.459 88.1885C81.459 89.0558 82.1337 89.7588 82.966 89.7588Z" fill="#1B004F"/>
<path d="M95.5725 92.2445C96.3181 92.2445 96.9224 91.6147 96.9224 90.8379C96.9224 90.0611 96.3181 89.4314 95.5725 89.4314C94.827 89.4314 94.2227 90.0611 94.2227 90.8379C94.2227 91.6147 94.827 92.2445 95.5725 92.2445Z" fill="#1B004F"/>
<path d="M84.9877 102.663C84.9877 102.663 82.4879 112.025 81.3665 116.706L91.1016 121C91.1016 121 85.3448 128.658 74.5027 126.849C62.7678 124.9 60.1895 115.188 60.1895 115.188L67.7603 114.101L72.0029 97.8482L84.9877 102.663Z" fill="#FFC17C"/>
<path d="M99.1436 183.46L137.462 192.301V201.403L87.4087 196.201L99.1436 183.46Z" fill="#FFC17C"/>
<path d="M136.791 192.391L164.753 188.231L169.474 194.214C169.653 194.437 169.774 194.705 169.824 194.995L170.746 199.974C170.924 200.949 170.296 201.879 169.353 202.035C168.489 202.177 167.675 201.604 167.467 200.718L166.418 196.208C166.418 196.208 153.683 205.831 137.041 201.239L136.791 192.391Z" fill="#FFC17C"/>
<path d="M60.1965 115.195C60.1965 115.195 51.2114 116.84 49.3758 117.279C47.5474 117.711 44.3833 120.137 42.6335 126.038C40.8836 131.932 27.0703 178.75 27.0703 178.75C27.0703 178.75 22.4135 191.669 34.5626 192.882L48.1259 178.4L45.7975 176.666C45.7975 176.666 48.3759 173.287 46.2975 169.469L48.8759 160.108L53.7827 175.803L47.626 218.37L93.1442 208.83L92.3085 193.485L96.0511 198.426L105.208 183.944L102.215 182.381C102.215 182.381 102.965 179.345 99.9652 179.003L96.3868 157.763C96.3868 157.763 97.6367 149.525 97.2225 147.01C96.8082 144.494 92.6442 126.113 92.6442 126.113C92.6442 126.113 92.7299 123.597 91.8086 122.734C90.8944 121.863 87.816 120.129 87.816 120.129C87.816 120.129 83.5734 126.716 76.4168 126.284C69.2673 125.86 60.1965 115.195 60.1965 115.195Z" fill="#F65C5E"/>
<path d="M96.2223 156.245L99.9649 179.003L100.858 179.293C102.108 179.695 102.743 181.146 102.208 182.389L105.2 183.952L96.4651 198.515L93.0439 196.528" stroke="#0D2C7A" stroke-width="3" stroke-linecap="round" stroke-linejoin="round"/>
<path d="M66.2031 85.2788C66.2031 85.2788 79.595 81.9299 82.9662 69.8367C82.9662 69.8367 86.2803 80.3448 99.2794 82.8825C99.2794 82.8825 104.4 61.6134 82.5948 58.5696C60.7892 55.5259 63.0819 84.8769 63.0819 84.8769L66.2031 85.2788Z" fill="#123281"/>
<path d="M90.23 208.659L159.24 219.606C165.832 220.648 171.253 225.552 173.174 232.205L197.987 318.078L188.83 323.108C188.83 323.108 163.082 283.86 157.711 269.876C153.219 258.17 154.383 243.867 154.383 243.867L87.1445 241.612L90.23 208.659Z" fill="#123281"/>
<path d="M47.5473 217.433C47.5473 217.433 40.2264 249.753 64.189 254.776C78.1166 257.701 135.248 257.895 135.248 257.895C135.248 257.895 131.42 261.102 126.592 269.08C115.428 287.528 104.622 329.427 104.622 329.427L115.607 334.368L164.689 246.568C168.11 240.451 164.275 232.704 157.511 232.064L95.6368 226.162L93.4726 208.473L47.5473 217.433Z" fill="#123281"/>
<path d="M111.621 301.862L129.092 310.442L117.607 335.038L120.692 342.837L128.013 345.092L129.013 348.738L119.064 348.999L97.6367 341.401L111.621 301.862Z" fill="#10265C"/>
<path d="M178.853 311.923L194.58 304.898L202.072 325.095L221.292 325.185L195.08 344.177L178.853 311.923Z" fill="#10265C"/>
<path d="M104.215 224.264L157.825 231.982C164.532 232.949 168.11 240.741 164.618 246.791L156.89 260.164" stroke="#2D4D9A" stroke-width="1.5" stroke-linecap="round"/>
<path d="M87.9229 119.698C87.9229 119.698 92.644 121.953 92.644 125.592C92.644 129.231 97.3008 143.281 97.3008 148.826C97.3008 153.879 92.4726 171.367 92.4726 171.367L91.9726 209.172L47.54 218.795C47.54 218.795 53.861 177.001 53.861 176.227C53.861 176.048 51.5112 168.896 49.2613 160.948" stroke="#0D2C7A" stroke-width="3" stroke-linecap="round" stroke-linejoin="round"/>
<path d="M45.4118 179.129L84.509 182.716L85.6447 191.743L35.3696 193.351L45.4118 179.129Z" fill="#FFC17C"/>
<path d="M67.0458 95.6231C67.0458 95.6231 64.4388 94.1198 62.3175 91.4258C60.0248 88.5234 58.7464 83.0834 61.8676 80.9326C66.5744 77.6805 69.1456 85.4201 69.1456 85.4201" fill="#FFC17C"/>
<path d="M91.1801 94.172C91.1801 94.172 93.4942 96.6204 93.2728 97.8334C93.0442 99.039 89.2588 98.2948 89.2588 98.2948" stroke="#1B004F" stroke-width="1.5" stroke-linecap="round" stroke-linejoin="round"/>
<path d="M80.7593 99.7459C80.7593 99.7459 81.6592 105.394 88.7016 105.417" stroke="#1B004F" stroke-width="1.5" stroke-linecap="round" stroke-linejoin="round"/>
<path d="M60.7109 114.957C60.7109 114.957 65.2678 126.47 75.2528 126.53C85.4878 126.596 87.3591 119.378 87.3591 119.378" stroke="#0D2C7A" stroke-width="3" stroke-linecap="round" stroke-linejoin="round"/>
<path d="M60.8395 115.344C60.8395 115.344 57.8611 129.067 65.6035 132.535C74.0243 136.308 77.0027 126.552 77.0027 126.552C77.0027 126.552 80.2167 135.125 85.4878 133.317C92.8087 130.801 87.3163 119.795 87.3163 119.795" stroke="#0D2C7A" stroke-width="3" stroke-linecap="round" stroke-linejoin="round"/>
<path d="M70.0099 85.889C70.0099 85.889 67.453 78.9978 63.0176 80.4267C59.2464 81.6471 58.1893 88.4863 66.1816 94.9905C66.1816 94.9905 66.7673 104.613 75.3381 109.212" stroke="#1B004F" stroke-width="1.5" stroke-linecap="round" stroke-linejoin="round"/>
<path d="M60.6538 114.801L50.6902 116.929C47.0476 117.755 44.1192 120.569 43.0265 124.275L26.8204 179.263C26.8204 179.263 23.0778 192.703 34.5556 192.874L48.119 178.392L45.7906 176.658L46.2191 176.041C47.5404 174.15 47.5047 171.568 46.1191 169.723L53.7757 143.624" stroke="#0D2C7A" stroke-width="3" stroke-linecap="round" stroke-linejoin="round"/>
<path d="M85.6449 191.743L87.0662 191.959C88.4233 192.16 89.7946 191.788 90.8803 190.917L103.594 180.737L106.629 182.523C107.079 182.791 107.643 182.694 107.993 182.292C108.436 181.779 108.358 180.982 107.822 180.581L102.994 176.949L84.5093 182.716L85.6449 191.743Z" fill="#FFC17C"/>
<path d="M111.322 182.292C111.043 182.329 110.75 182.27 110.493 182.098L105.279 178.668C105.108 178.556 104.886 178.549 104.708 178.645L101.344 180.491C100.737 180.826 99.9795 180.58 99.658 179.948C99.3366 179.308 99.5723 178.526 100.179 178.191L103.551 176.346C104.522 175.817 105.7 175.862 106.622 176.472L111.836 179.903C112.421 180.29 112.593 181.094 112.221 181.697C112.007 182.031 111.679 182.24 111.322 182.292Z" fill="#FFC17C"/>
<path d="M91.8516 189.005C90.9302 189.131 90.0589 188.491 89.8732 187.524C89.6803 186.519 90.3088 185.537 91.2731 185.336L100.472 183.423C101.437 183.23 102.379 183.877 102.572 184.882C102.765 185.886 102.137 186.869 101.172 187.07L91.973 188.982C91.9302 188.99 91.8945 188.997 91.8516 189.005Z" fill="#FFC17C"/>
<path d="M94.0513 187.948L103.722 180.796L106.658 182.597C107.193 182.925 107.886 182.768 108.243 182.232C108.629 181.659 108.479 180.871 107.922 180.484L106.036 179.189L110.5 182.106C111.107 182.5 111.907 182.292 112.264 181.652C112.6 181.049 112.421 180.283 111.864 179.896L109.193 178.065" stroke="#1B004F" stroke-width="0.75" stroke-linecap="round" stroke-linejoin="round"/>
<path d="M100.044 183.684L100.594 183.579C101.508 183.408 102.372 184.056 102.508 185.008C102.629 185.894 102.079 186.727 101.244 186.921L96.8296 187.94" stroke="#1B004F" stroke-width="0.75" stroke-linecap="round" stroke-linejoin="round"/>
<path d="M118.157 207.237H109.536V349.081H118.157V207.237Z" fill="#94C8FF"/>
<path d="M213.35 210.222H109.536V221.474H213.35V210.222Z" fill="#94C8FF"/>
<path d="M213.35 210.222H109.536V213.184H213.35V210.222Z" fill="#4266BE"/>
<path d="M285.495 205.273H94.98V210.445H285.495V205.273Z" fill="#94C8FF"/>
<path d="M270.939 210.222H262.318V349.081H270.939V210.222Z" fill="#4266BE"/>
<path d="M213.358 207.237H204.737V349.081H213.358V207.237Z" fill="#94C8FF"/>
<path d="M270.932 210.222H213.351V221.474H270.932V210.222Z" fill="#4266BE"/>
<path d="M121.935 205.273L136.748 162.712C137.148 161.559 138.191 160.785 139.369 160.77C146.969 160.673 174.131 160.755 182.573 160.785C183.802 160.792 184.652 162.065 184.237 163.263L169.617 205.273H121.935Z" fill="#123281"/>
<path d="M132.92 205.273H103.279C102.415 205.273 101.715 204.543 101.715 203.643V202.154H135.662L132.92 205.273Z" fill="#123281"/>
<path d="M140.162 164.699L128.177 200.852" stroke="white" stroke-width="1.5" stroke-linecap="round"/>
<path d="M277.72 146.852H141.28C136.706 146.852 133 142.717 133 137.614V25.7707C133 20.6676 136.706 16.533 141.28 16.533H277.72C282.294 16.533 286 20.6676 286 25.7707V137.614C286 142.717 282.294 146.852 277.72 146.852Z" fill="white" stroke="#2D4D9A" stroke-width="2.25"/>
<path d="M219.94 141.803H183.235C180.343 141.803 178 139.362 178 136.348V129.836C178 126.822 180.343 124.381 183.235 124.381H219.94C222.833 124.381 225.175 126.822 225.175 129.836V136.348C225.175 139.362 222.833 141.803 219.94 141.803Z" fill="#4266BE"/>
<path d="M198.154 52.8136H157.507C155.571 52.8136 154 51.1764 154 49.1596V43.5856C154 41.5689 155.571 39.9316 157.507 39.9316H198.154C200.09 39.9316 201.661 41.5689 201.661 43.5856V49.1596C201.661 51.1764 200.09 52.8136 198.154 52.8136Z" fill="#4266BE"/>
<path d="M308.387 22.4252C314.28 22.4252 319.057 17.4474 319.057 11.307C319.057 5.16653 314.28 0.188721 308.387 0.188721C302.493 0.188721 297.716 5.16653 297.716 11.307C297.716 17.4474 302.493 22.4252 308.387 22.4252Z" fill="#94C8FF"/>
<path d="M305.837 60.7514H222.035C219.257 60.7514 217 58.3997 217 55.5048V14.6634C217 11.7685 219.257 9.41687 222.035 9.41687H305.83C308.608 9.41687 310.865 11.7685 310.865 14.6634V55.5048C310.865 58.3997 308.615 60.7514 305.837 60.7514Z" fill="#4266BE"/>
<path d="M238.977 49.2088C246.464 49.2088 252.533 42.885 252.533 35.084C252.533 27.2831 246.464 20.9592 238.977 20.9592C231.49 20.9592 225.421 27.2831 225.421 35.084C225.421 42.885 231.49 49.2088 238.977 49.2088Z" fill="white"/>
<path d="M238.978 36.8628C241.419 36.8628 243.399 34.8004 243.399 32.2562C243.399 29.7121 241.419 27.6497 238.978 27.6497C236.536 27.6497 234.557 29.7121 234.557 32.2562C234.557 34.8004 236.536 36.8628 238.978 36.8628Z" fill="#2D4D9A"/>
<path d="M245.483 39.2739V45.1754C243.634 46.4777 241.391 47.2368 238.984 47.2368C236.57 47.2368 234.334 46.4777 232.484 45.1754V39.2739H245.483Z" fill="#2D4D9A"/>
<path d="M298.408 28.2599H262.211C260.868 28.2599 259.775 27.1212 259.775 25.7222C259.775 24.3231 260.868 23.1844 262.211 23.1844H298.408C299.751 23.1844 300.844 24.3231 300.844 25.7222C300.844 27.1212 299.751 28.2599 298.408 28.2599Z" fill="#2D4D9A"/>
<path d="M298.408 37.6218H262.211C260.868 37.6218 259.775 36.4832 259.775 35.0841C259.775 33.685 260.868 32.5464 262.211 32.5464H298.408C299.751 32.5464 300.844 33.685 300.844 35.0841C300.844 36.4832 299.751 37.6218 298.408 37.6218Z" fill="#2D4D9A"/>
<path d="M298.408 46.9838H262.211C260.868 46.9838 259.775 45.8452 259.775 44.4461C259.775 43.0471 260.868 41.9084 262.211 41.9084H298.408C299.751 41.9084 300.844 43.0471 300.844 44.4461C300.844 45.8452 299.751 46.9838 298.408 46.9838Z" fill="#2D4D9A"/>
<path d="M312.843 8.53854C312.843 8.53854 306.765 4.06595 304.794 6.76736C302.308 10.1832 308.729 14.3135 308.729 14.3135" stroke="#4962FF" stroke-width="2.25" stroke-linecap="round" stroke-linejoin="round"/>
<path d="M273.214 114.614H206.936C204.761 114.614 203 112.779 203 110.513V77.5757C203 75.3099 204.761 73.4751 206.936 73.4751H273.214C275.389 73.4751 277.15 75.3099 277.15 77.5757V110.513C277.15 112.779 275.389 114.614 273.214 114.614Z" fill="#F4F9F9" stroke="#2D4D9A" stroke-width="2.25"/>
<path d="M213.295 86.8492H247.522C249.023 86.8492 250.243 85.5781 250.243 84.0141V83.5831C250.243 82.0191 249.023 80.748 247.522 80.748H213.295C211.794 80.748 210.574 82.0191 210.574 83.5831V84.0141C210.574 85.5836 211.794 86.8492 213.295 86.8492Z" fill="#4266BE"/>
<path fill-rule="evenodd" clip-rule="evenodd" d="M256.629 86.8492H266.526C268.027 86.8492 269.247 85.5781 269.247 84.0141V83.5831C269.247 82.0191 268.027 80.748 266.526 80.748H256.629C255.128 80.748 253.908 82.0191 253.908 83.5831V84.0141C253.908 85.5836 255.128 86.8492 256.629 86.8492Z" stroke="#2D4D9A" stroke-width="2.25"/>
<path fill-rule="evenodd" clip-rule="evenodd" d="M213.295 107.341H266.855C268.356 107.341 269.576 106.07 269.576 104.506V104.075C269.576 102.511 268.356 101.24 266.855 101.24H213.295C211.794 101.24 210.574 102.511 210.574 104.075V104.506C210.574 106.07 211.794 107.341 213.295 107.341Z" stroke="#2D4D9A" stroke-width="2.25"/>
<path d="M233.981 97.0952H266.85C268.351 97.0952 269.57 95.8241 269.57 94.2601V93.8291C269.57 92.2651 268.351 90.994 266.85 90.994H233.981C232.48 90.994 231.26 92.2651 231.26 93.8291V94.2601C231.265 95.8241 232.48 97.0952 233.981 97.0952Z" fill="#4266BE"/>
<path d="M213.295 97.0952H226.194C227.695 97.0952 228.915 95.8241 228.915 94.2601V93.8291C228.915 92.2651 227.695 90.994 226.194 90.994H213.295C211.794 90.994 210.574 92.2651 210.574 93.8291V94.2601C210.574 95.8241 211.794 97.0952 213.295 97.0952Z" fill="#4266BE"/>
<path d="M160.926 67.3845C147.712 67.3845 137 78.5459 137 92.3143C137 106.083 147.712 117.244 160.926 117.244C174.14 117.244 184.852 106.083 184.852 92.3143C184.857 78.5459 174.14 67.3845 160.926 67.3845ZM160.926 104.782C154.319 104.782 148.965 99.1985 148.965 92.3143C148.965 85.4301 154.324 79.8518 160.926 79.8518C167.533 79.8518 172.892 85.4349 172.892 92.3143C172.892 99.1985 167.533 104.782 160.926 104.782Z" fill="#2D4D9A"/>
<path d="M184.857 92.3141H172.892C172.892 85.4299 167.534 79.8516 160.927 79.8516C155.645 79.8516 151.159 83.4191 149.579 88.3728L138.231 84.4316C141.482 74.2827 150.655 67.389 160.927 67.389C174.054 67.3843 184.857 78.6403 184.857 92.3141Z" fill="#123281"/>
<path d="M184.857 92.3143H172.892C172.892 85.4301 167.533 79.8518 160.926 79.8518C157.666 79.8518 154.71 81.2097 152.553 83.4146L144.179 74.5148C148.647 69.9489 154.664 67.3845 160.926 67.3845C174.054 67.3845 184.857 78.6406 184.857 92.3143Z" fill="#94C8FF"/>
<path d="M184.857 92.3138H172.892C172.892 85.9737 168.346 80.736 162.461 79.9553L163.996 67.5922C169.758 68.3728 175.062 71.3063 178.899 75.8579C182.736 80.4048 184.857 86.2576 184.857 92.3138Z" fill="#10265C"/>
<path d="M171.556 98.0441C169.563 102.047 165.553 104.777 160.931 104.777C154.324 104.777 148.97 99.1986 148.97 92.3143C148.97 85.4301 154.324 79.8518 160.931 79.8518" stroke="#4962FF" stroke-width="2.25" stroke-linecap="round" stroke-linejoin="round"/>
</svg>
